Coordinates
version=1
nRows=14
nColumns=42
inDegrees=yes

Units are S.I. units (second, meters, Newtons, ...)
If the header above contains a line with 'inDegrees', this indicates whether rotational values are in degrees (yes) or radians (no).

endheader
time	pelvis_tilt	pelvis_list	pelvis_rotation	pelvis_tx	pelvis_ty	pelvis_tz	hip_flexion_r	hip_adduction_r	hip_rotation_r	knee_angle_r	knee_adduction_r	knee_angle_r_beta	ankle_angle_r	subtalar_angle_r	mtp_angle_r	hip_flexion_l	hip_adduction_l	hip_rotation_l	knee_angle_l	knee_adduction_l	knee_angle_l_beta	ankle_angle_l	subtalar_angle_l	mtp_angle_l	lumbar_extension	lumbar_bending	lumbar_rotation	arm_flex_r	arm_add_r	arm_rot_r	elbow_flex_r	pro_sup_r	wrist_flex_r	wrist_dev_r	arm_flex_l	arm_add_l	arm_rot_l	elbow_flex_l	pro_sup_l	wrist_flex_l	wrist_dev_l
      1.30000000	     10.03425190	      7.02210797	     19.02824418	      0.15705827	      0.90414654	      0.48029693	     -8.44273818	     -0.88677544	    -20.60086919	     20.21434362	      2.93252629	      0.35280685	     20.63819484	     -1.94009789	     -7.91935538	     25.97106551	     -7.92326121	      2.60059981	     26.85860565	      5.80147824	      0.46877110	      6.80566995	      7.27238265	     -7.91935538	    -27.22937404	     -5.33540784	     -1.71388923	     -9.07471658	    -24.10869260	    -27.65296502	     66.24346355	     90.00000001	      0.00000000	      0.00000000	      0.27883951	    -20.45259409	     12.63945562	     87.84419445	     90.00000001	      0.00000000	      0.00000000
      1.31000000	     10.37111577	      6.99376253	     18.75341742	      0.15945275	      0.90372081	      0.48016280	     -8.85350136	     -0.75884980	    -20.31179507	     20.39022882	      2.95369478	      0.35587663	     20.85972075	     -1.98654493	     -7.91208996	     26.43440405	     -7.80384826	      2.12082122	     27.19576687	      5.82542144	      0.47465567	      6.78929215	      7.44915055	     -7.91208996	    -27.36204608	     -5.23881944	     -1.49111094	     -8.96958020	    -24.17633767	    -27.19883003	     66.92793627	     90.00000001	      0.00000000	      0.00000000	      0.00195750	    -20.53703233	     12.33135833	     87.78251691	     90.00000001	      0.00000000	      0.00000000
      1.32000000	     10.76043639	      6.93464352	     18.39330044	      0.16203781	      0.90334744	      0.48002992	     -9.40356313	     -0.59983639	    -19.87980425	     20.39216464	      3.05945015	      0.35591041	     21.05241253	     -2.11340255	     -7.89996674	     26.80041996	     -7.69734070	      1.49509517	     27.60378771	      5.65192045	      0.48177698	      6.86233430	      8.05398547	     -7.89996674	    -27.52682716	     -5.14348056	     -1.14555873	     -9.06782141	    -24.38161249	    -26.49603171	     67.67944448	     90.00000001	      0.00000000	      0.00000000	     -0.33565418	    -20.48323454	     11.87564959	     87.89335922	     90.00000001	      0.00000000	      0.00000000
      1.33000000	     11.12897037	      6.91069305	     18.09212993	      0.16466408	      0.90306215	      0.47978744	     -9.95033522	     -0.48931872	    -19.59579943	     20.41229258	      3.12377614	      0.35626171	     21.18258990	     -2.24464407	     -7.88765962	     27.04731458	     -7.54313472	      1.03191326	     27.87750485	      5.60662112	      0.48655425	      6.91111283	      8.57424698	     -7.88765962	    -27.67691188	     -5.05162473	     -0.92135821	     -8.95526136	    -24.41061876	    -26.03071535	     68.27271517	     90.00000001	      0.00000000	      0.00000000	     -0.66091345	    -20.51555124	     11.58031135	     87.86852704	     90.00000001	      0.00000000	      0.00000000
      1.34000000	     11.31668141	      6.83931386	     17.80356353	      0.16729733	      0.90259800	      0.47951737	    -10.22143598	     -0.41913995	    -19.52024882	     20.58255220	      3.11210768	      0.35923330	     21.17192096	     -2.19401837	     -7.88540897	     27.33997519	     -7.31184595	      1.04315357	     27.95369461	      5.67158221	      0.48788401	      6.86599903	      8.60839995	     -7.88540897	    -27.61698394	     -5.00574365	     -0.59537777	     -8.78490396	    -24.31608721	    -25.89624288	     68.44484746	     90.00000001	      0.00000000	      0.00000000	     -0.89911037	    -20.55191929	     11.54579914	     87.77312036	     90.00000001	      0.00000000	      0.00000000
      1.35000000	     11.73085564	      6.86127815	     17.54527665	      0.16998407	      0.90244068	      0.47905998	    -10.92279735	     -0.35764667	    -19.34174775	     20.47809101	      3.21999285	      0.35741011	     21.66549503	     -2.26161195	     -7.88006724	     27.38235004	     -7.03643750	      0.80831820	     28.21148097	      5.64100797	      0.49238323	      6.72953120	      8.68779059	     -7.88006724	    -27.86704420	     -4.89917322	     -0.50070256	     -8.80290255	    -24.35473528	    -25.30972982	     69.51229491	     90.00000001	      0.00000000	      0.00000000	     -1.32336358	    -20.51634422	     11.09679785	     87.81854942	     90.00000001	      0.00000000	      0.00000000
      1.36000000	     11.87200893	      6.75913293	     17.21799589	      0.17275786	      0.90194112	      0.47875744	    -11.16077382	     -0.29356620	    -19.25636539	     20.62335515	      3.22114240	      0.35994545	     21.62997448	     -2.18618931	     -7.87788613	     27.57952447	     -6.80386050	      0.86659332	     28.27180857	      5.67582063	      0.49343615	      6.67777063	      8.72892921	     -7.87788613	    -27.74978553	     -4.84813352	     -0.16612334	     -8.63842042	    -24.23129190	    -25.13765104	     69.69292592	     90.00000001	      0.00000000	      0.00000000	     -1.61691377	    -20.49650655	     11.08872436	     87.72607020	     90.00000001	      0.00000000	      0.00000000
      1.37000000	     12.32685149	      6.84962885	     16.92529208	      0.17553377	      0.90206643	      0.47817464	    -12.04533588	     -0.31383953	    -18.97090451	     20.29079553	      3.40214091	      0.35414119	     22.02696558	     -2.07501700	     -7.87206792	     27.21916744	     -6.40863058	      0.85277587	     28.13625515	      5.63578349	      0.49107029	      6.48685418	      8.84114392	     -7.87206792	    -28.09123199	     -4.79370780	     -0.12977390	     -8.70411061	    -24.34428629	    -24.24834061	     70.85605034	     90.00000001	      0.00000000	      0.00000000	     -2.11677098	    -20.38516724	     10.54707686	     87.82339549	     90.00000001	      0.00000000	      0.00000000
      1.38000000	     12.42547301	      6.72326380	     16.57521788	      0.17845949	      0.90153799	      0.47785101	    -12.25297355	     -0.24962192	    -18.90166565	     20.41340031	      3.39238575	      0.35628105	     21.99781836	     -2.00396271	     -7.86996484	     27.31546129	     -6.18720743	      0.94407996	     28.17239689	      5.65139622	      0.49170108	      6.42889581	      8.87433049	     -7.86996484	    -27.92137042	     -4.74037873	      0.17840978	     -8.51508353	    -24.18735785	    -24.06765141	     71.04908112	     90.00000001	      0.00000000	      0.00000000	     -2.46086144	    -20.35226707	     10.56833310	     87.70729689	     90.00000001	      0.00000000	      0.00000000
      1.39000000	     12.78627558	      6.79873761	     16.23230960	      0.18143105	      0.90163845	      0.47736892	    -13.00518987	     -0.27020107	    -18.66145073	     20.12103767	      3.45810103	      0.35117836	     22.34531484	     -1.85142434	     -7.86491878	     26.75938478	     -5.77103849	      1.17298613	     27.72620583	      5.65438321	      0.48391358	      6.19108349	      8.87692898	     -7.86491878	    -28.14280300	     -4.75129673	      0.24121471	     -8.50313115	    -24.22096388	    -23.26537485	     72.07481797	     90.00000001	      0.00000000	      0.00000000	     -2.98606634	    -20.24078383	     10.15787475	     87.72364632	     90.00000001	      0.00000000	      0.00000000
      1.40000000	     12.85503017	      6.64541036	     15.90339374	      0.18454301	      0.90106825	      0.47694072	    -13.20286707	     -0.19026766	    -18.61759103	     20.20862714	      3.46024968	      0.35270708	     22.33464387	     -1.80351492	     -7.86367637	     26.73591860	     -5.55934808	      1.28176820	     27.72866415	      5.65050310	      0.48395649	      6.13813576	      8.89055824	     -7.86367637	    -27.92194489	     -4.66903218	      0.52225289	     -8.33611753	    -24.01492721	    -23.08943387	     72.25291348	     90.00000001	      0.00000000	      0.00000000	     -3.34317777	    -20.15840104	     10.22189923	     87.62375752	     90.00000001	      0.00000000	      0.00000000
      1.41000000	     13.27913482	      6.85786577	     15.47702779	      0.18766712	      0.90145086	      0.47652294	    -14.11635888	     -0.39041651	    -18.33829549	     19.84993718	      3.59832657	      0.34644676	     22.54588893	     -1.41475328	     -7.85179763	     25.69985038	     -5.00799483	      1.63136221	     26.83498462	      5.62457216	      0.46835884	      5.74051314	      8.38554402	     -7.85179763	    -28.26385870	     -4.84011934	      0.48464579	     -8.18766045	    -24.04802832	    -22.08447922	     73.12562740	     90.00000001	      0.00000000	      0.00000000	     -3.89982607	    -20.07120920	      9.81720040	     87.66173907	     90.00000001	      0.00000000	      0.00000000
      1.42000000	     13.29393703	      6.66114126	     15.15482629	      0.19091173	      0.90077853	      0.47599365	    -14.25591346	     -0.27537869	    -18.26959607	     19.92965856	      3.55305729	      0.34783816	     22.60687454	     -1.37716376	     -7.85029166	     25.57934933	     -4.82516424	      1.77759254	     26.73300437	      5.59012941	      0.46657895	      5.68128303	      8.40529694	     -7.85029166	    -27.99048400	     -4.70979433	      0.70157284	     -8.02574700	    -23.86350945	    -21.89993034	     73.45416084	     90.00000001	      0.00000000	      0.00000000	     -4.35093504	    -19.96269691	      9.89826130	     87.52910235	     90.00000001	      0.00000000	      0.00000000
      1.43000000	     13.51057954	      6.64730911	     14.77263622	      0.19415879	      0.90060893	      0.47554807	    -14.74476404	     -0.27532088	    -17.99911634	     19.82292822	      3.55699546	      0.34597536	     22.96256501	     -1.14415413	     -7.84322400	     24.74885214	     -4.51608906	      2.23624622	     25.87526851	      5.68186132	      0.45160863	      5.43856184	      8.19773115	     -7.84322400	    -28.03534616	     -4.70169292	      0.81854672	     -8.06150302	    -23.85879325	    -21.11994457	     74.45983476	     90.00000001	      0.00000000	      0.00000000	     -4.81870312	    -19.77820839	      9.65823546	     87.47477487	     90.00000001	      0.00000000	      0.00000000
